<svg width="282" height="50" viewBox="0 0 282 50" fill="none" xmlns="http://www.w3.org/2000/svg">
<g clip-path="url(#clip0_4_362)">
<path fill-rule="evenodd" clip-rule="evenodd" d="M278.627 30.2081H267.408L259.516 49.2081H270.735L278.627 30.2081ZM274.536 49.2081H282V31.2386L274.536 49.2081ZM252.389 30.2081H263.608L255.716 49.2081H244.496L252.389 30.2081ZM248.588 30.2081H237.369L229.477 49.2081H240.696L248.588 30.2081ZM222.349 30.2081H233.568L225.676 49.2081H214.457L222.349 30.2081ZM218.549 30.2081H207.33L199.437 49.2081H210.657L218.549 30.2081ZM192.31 30.2081H203.529L195.637 49.2081H184.418L192.31 30.2081ZM188.509 30.2081H177.29L169.398 49.2081H180.617L188.509 30.2081ZM162.271 30.2081H173.49L165.597 49.2081H154.378L162.271 30.2081ZM158.47 30.2081H147.251L139.359 49.2081H150.578L158.47 30.2081ZM132.231 30.2081H143.45L135.558 49.2081H124.339L132.231 30.2081ZM128.431 30.2081H117.211L109.319 49.2081H120.538L128.431 30.2081ZM102.192 30.2081H113.411L105.519 49.2081H94.2997L102.192 30.2081ZM98.3912 30.2081H87.172L79.2799 49.2081H90.4991L98.3912 30.2081ZM72.1524 30.2081H83.3714L75.4793 49.2081H64.2602L72.1524 30.2081ZM68.3518 30.2081H57.1326L49.2405 49.2081H60.4596L68.3518 30.2081ZM42.1129 30.2081H53.332L45.4399 49.2081H34.2208L42.1129 30.2081ZM38.3123 30.2081H27.0933L19.2012 49.2081H30.4202L38.3123 30.2081ZM12.0736 30.2081H23.2927L15.4006 49.2081H4.18144L12.0736 30.2081ZM8.27296 30.2081H0V49.2081H0.38084L8.27296 30.2081Z" fill="#717171"/>
<path d="M275.038 19.6081C275.038 18.2855 274.824 17.4108 274.397 16.9841C273.971 16.5575 273.075 16.3441 271.71 16.3441H270.557C269.235 16.3441 268.339 16.5575 267.87 16.9841C267.443 17.4108 267.229 18.2855 267.229 19.6081V38.8082C267.229 40.1309 267.443 41.0055 267.87 41.4321C268.339 41.8588 269.235 42.0722 270.557 42.0722H271.71C273.075 42.0722 273.971 41.8588 274.397 41.4321C274.824 41.0055 275.038 40.1309 275.038 38.8082V19.6081ZM263.837 38.8082V19.6081C263.837 15.1708 266.077 12.9521 270.557 12.9521H271.71C276.19 12.9521 278.43 15.1708 278.43 19.6081V38.8082C278.43 43.2456 276.19 45.4641 271.71 45.4641H270.557C266.077 45.4641 263.837 43.2456 263.837 38.8082Z" fill="white"/>
<path d="M258.17 7.44812H261.434L261.946 10.8401H258.17V7.44812ZM258.554 45.2081V16.6001H257.658L258.17 13.2081H261.946V45.2081H258.554Z" fill="white"/>
<path d="M248.706 45.2081C246.744 45.2081 245.165 44.6534 243.97 43.5441C242.818 42.3921 242.242 40.9628 242.242 39.2561V19.1601C242.242 17.1974 242.797 15.7254 243.906 14.7441C245.058 13.7201 246.68 13.2081 248.77 13.2081H248.898C249.453 13.2081 249.986 13.2721 250.498 13.4001C251.053 13.5281 251.565 13.7201 252.035 13.9761V3.80008H250.882L251.395 0.408081H255.426V41.8161H256.194L256.706 45.2081H252.035V43.6081L250.562 45.2081H248.706ZM247.554 16.6001C246.786 16.6001 246.274 16.7281 246.018 16.9841C245.762 17.2401 245.634 17.7521 245.634 18.5201V39.8961C245.634 40.6641 245.762 41.1761 246.018 41.4321C246.274 41.6881 246.786 41.8161 247.554 41.8161H252.035V16.6001H247.554Z" fill="white"/>
<path d="M235.944 41.8161V13.2081H239.336V41.8161H240.104L240.616 45.2081H235.944V43.7361L234.6 45.2081H232.744C230.781 45.2081 229.203 44.6535 228.008 43.5441C226.856 42.3921 226.28 40.9628 226.28 39.2561V16.6001H225L225.64 13.2081H229.672V39.8961C229.672 40.6641 229.8 41.1761 230.056 41.4321C230.312 41.6881 230.824 41.8161 231.592 41.8161H235.944Z" fill="white"/>
<path d="M224.339 41.8161V45.2081H221.267C220.243 45.2081 219.411 44.9094 218.771 44.3121C218.174 43.6721 217.875 42.8401 217.875 41.8161V16.6001H215.188L215.699 13.2081H217.875V3.80008H216.723L217.235 0.408081H221.267V13.2081H224.339L223.827 16.6001H221.267V41.8161H224.339Z" fill="white"/>
<path d="M203.055 32.4081V39.0001C203.055 41.1761 204.164 42.2641 206.383 42.2641H207.535C209.753 42.2641 210.863 41.4108 210.863 39.7041L210.799 26.9681L201.199 22.4881C200.175 22.0188 199.663 21.1654 199.663 19.9281V6.1041C199.663 2.1361 201.903 0.1521 206.383 0.1521H208.111C212.207 0.365433 214.255 2.5841 214.255 6.8081V15.7041L210.863 15.3201V6.8081C210.863 4.6321 209.753 3.5441 207.535 3.5441H206.383C204.164 3.5441 203.055 4.39744 203.055 6.1041L203.118 19.8001L212.719 24.3441C213.743 24.8134 214.255 25.6668 214.255 26.9041V39.7041C214.255 43.6721 212.015 45.6561 207.535 45.6561H205.807C201.711 45.4428 199.663 43.2241 199.663 39.0001V32.4081H203.055Z" fill="white"/>
<path d="M184.979 45.2081C183.016 45.2081 181.438 44.6534 180.243 43.5441C179.091 42.3921 178.515 40.9628 178.515 39.2561V19.1601C178.515 17.1974 179.07 15.7254 180.179 14.7441C181.331 13.7201 182.952 13.2081 185.043 13.2081H185.171C185.726 13.2081 186.259 13.2721 186.771 13.4001C187.326 13.5281 187.838 13.7201 188.307 13.9761V3.80008H187.155L187.667 0.408081H191.699V41.8161H192.467L192.979 45.2081H188.307V43.6081L186.835 45.2081H184.979ZM183.827 16.6001C183.059 16.6001 182.547 16.7281 182.291 16.9841C182.035 17.2401 181.907 17.7521 181.907 18.5201V39.8961C181.907 40.6641 182.035 41.1761 182.291 41.4321C182.547 41.6881 183.059 41.8161 183.827 41.8161H188.307V16.6001H183.827Z" fill="white"/>
<path d="M162.737 45.2081V16.6001H161.585L162.097 13.2081H166.129V14.6801L167.473 13.2081H169.329C171.292 13.2081 172.849 13.7628 174.001 14.8721C175.196 15.9815 175.793 17.4108 175.793 19.1601V41.8161H176.945L176.433 45.2081H172.401V18.5201C172.401 17.7521 172.273 17.2401 172.017 16.9841C171.761 16.7281 171.249 16.6001 170.481 16.6001H166.129V45.2081H162.737Z" fill="white"/>
<path d="M155.919 41.8161V13.2081H159.311V41.8161H160.079L160.591 45.2081H155.919V43.7361L154.575 45.2081H152.719C150.756 45.2081 149.178 44.6535 147.983 43.5441C146.831 42.3921 146.255 40.9628 146.255 39.2561V16.6001H144.975L145.615 13.2081H149.647V39.8961C149.647 40.6641 149.775 41.1761 150.031 41.4321C150.287 41.6881 150.799 41.8161 151.567 41.8161H155.919Z" fill="white"/>
<path d="M140.01 19.6081C140.01 18.2855 139.797 17.4108 139.37 16.9841C138.943 16.5575 138.047 16.3441 136.682 16.3441H135.53C134.207 16.3441 133.311 16.5575 132.842 16.9841C132.415 17.4108 132.202 18.2855 132.202 19.6081V38.8082C132.202 40.1309 132.415 41.0055 132.842 41.4321C133.311 41.8588 134.207 42.0722 135.53 42.0722H136.682C138.047 42.0722 138.943 41.8588 139.37 41.4321C139.797 41.0055 140.01 40.1309 140.01 38.8082V19.6081ZM128.81 38.8082V19.6081C128.81 15.1708 131.05 12.9521 135.53 12.9521H136.682C141.162 12.9521 143.402 15.1708 143.402 19.6081V38.8082C143.402 43.2456 141.162 45.4641 136.682 45.4641H135.53C131.05 45.4641 128.81 43.2456 128.81 38.8082Z" fill="white"/>
<path d="M115.717 32.4081V39.0001C115.717 41.1761 116.826 42.2641 119.045 42.2641H120.197C122.416 42.2641 123.525 41.4108 123.525 39.7041L123.461 26.9681L113.861 22.4881C112.837 22.0188 112.325 21.1654 112.325 19.9281V6.1041C112.325 2.1361 114.565 0.1521 119.045 0.1521H120.773C124.869 0.365433 126.917 2.5841 126.917 6.8081V15.7041L123.525 15.3201V6.8081C123.525 4.6321 122.416 3.5441 120.197 3.5441H119.045C116.826 3.5441 115.717 4.39744 115.717 6.1041L115.781 19.8001L125.381 24.3441C126.405 24.8134 126.917 25.6668 126.917 26.9041V39.7041C126.917 43.6721 124.677 45.6561 120.197 45.6561H118.469C114.373 45.4428 112.325 43.2241 112.325 39.0001V32.4081H115.717Z" fill="white"/>
<path d="M101.089 41.8161V13.2081H104.481V41.8161H105.121L105.633 45.2081H101.089V43.7361L99.745 45.2081H97.889C95.6703 45.2081 93.9636 44.4828 92.769 43.0321L90.785 45.2081H88.289C86.3263 45.2081 84.7477 44.6535 83.553 43.5441C82.401 42.3921 81.825 40.9628 81.825 39.2561V16.6001H80.545L81.185 13.2081H85.217V39.8961C85.217 40.6641 85.345 41.1761 85.601 41.4321C85.857 41.6881 86.369 41.8161 87.137 41.8161H91.937C91.5956 41.0481 91.425 40.1948 91.425 39.2561V13.2081H94.817V39.8961C94.817 40.6641 94.945 41.1761 95.201 41.4321C95.457 41.6881 95.969 41.8161 96.737 41.8161H101.089Z" fill="white"/>
<path d="M75.58 19.6081C75.58 18.2855 75.3667 17.4108 74.94 16.9841C74.5133 16.5575 73.6173 16.3441 72.252 16.3441H71.1C69.7773 16.3441 68.8813 16.5575 68.412 16.9841C67.9853 17.4108 67.772 18.2855 67.772 19.6081V38.8082C67.772 40.1309 67.9853 41.0055 68.412 41.4321C68.8813 41.8588 69.7773 42.0722 71.1 42.0722H72.252C73.6173 42.0722 74.5133 41.8588 74.94 41.4321C75.3667 41.0055 75.58 40.1309 75.58 38.8082V19.6081ZM64.38 38.8082V19.6081C64.38 15.1708 66.62 12.9521 71.1 12.9521H72.252C76.732 12.9521 78.972 15.1708 78.972 19.6081V38.8082C78.972 43.2456 76.732 45.4641 72.252 45.4641H71.1C66.62 45.4641 64.38 43.2456 64.38 38.8082Z" fill="white"/>
<path d="M57.782 45.2081V3.80008H56.63L57.142 0.408081H61.174V41.8161H63.414L62.902 45.2081H57.782Z" fill="white"/>
<path d="M50.3595 45.2081V3.80008H49.2075L49.7195 0.408081H53.7515V41.8161H55.9915L55.4795 45.2081H50.3595Z" fill="white"/>
<path d="M33.8 38.8082V19.6081C33.8 15.1708 36.0401 12.9521 40.5201 12.9521H41.224C45.704 12.9521 47.944 15.1708 47.944 19.6081V31.8961H37.1921V38.8082C37.1921 40.1309 37.4054 41.0055 37.8321 41.4321C38.3014 41.8588 39.1974 42.0722 40.5201 42.0722H41.224C42.5893 42.0722 43.4853 41.8588 43.912 41.4321C44.3387 41.0055 44.552 40.1309 44.552 38.8082V35.7361H47.944V38.8082C47.944 43.2456 45.704 45.4641 41.224 45.4641H40.5201C36.0401 45.4641 33.8 43.2456 33.8 38.8082ZM44.552 19.6081C44.552 18.2855 44.3387 17.4108 43.912 16.9841C43.4853 16.5575 42.5893 16.3441 41.224 16.3441H40.5201C39.1974 16.3441 38.3014 16.5575 37.8321 16.9841C37.4054 17.4108 37.1921 18.2855 37.1921 19.6081V28.5041H44.552V19.6081Z" fill="white"/>
<path d="M4.91752 45.2081V6.36008H3.95752L4.59752 0.408081H14.5815L17.6535 24.5361L20.7895 0.408081H30.5815V45.2081H24.5015V10.3921L19.7655 38.8081H15.6055L10.9975 11.1601V45.2081H4.91752Z" fill="white"/>
<path d="M65 1.20813C65 0.655845 65.4477 0.20813 66 0.20813C66.5523 0.20813 67 0.655845 67 1.20813V9.20813C67 9.76041 66.5523 10.2081 66 10.2081C65.4477 10.2081 65 9.76041 65 9.20813V1.20813Z" fill="#4666FF"/>
<path d="M70.4352 4.20813C70.4352 3.65585 70.8829 3.20813 71.4352 3.20813C71.9875 3.20813 72.4352 3.65585 72.4352 4.20813V6.20813C72.4352 6.76041 71.9875 7.20813 71.4352 7.20813C70.8829 7.20813 70.4352 6.76041 70.4352 6.20813V4.20813Z" fill="#4666FF"/>
<path d="M75.8704 3.20813C75.8704 2.65585 76.3181 2.20813 76.8704 2.20813C77.4226 2.20813 77.8704 2.65585 77.8704 3.20813V7.20813C77.8704 7.76041 77.4226 8.20813 76.8704 8.20813C76.3181 8.20813 75.8704 7.76041 75.8704 7.20813V3.20813Z" fill="#4666FF"/>
<path d="M81.3055 5.20813C81.3055 4.65585 81.7533 4.20813 82.3055 4.20813C82.8578 4.20813 83.3055 4.65585 83.3055 5.20813C83.3055 5.76041 82.8578 6.20813 82.3055 6.20813C81.7533 6.20813 81.3055 5.76041 81.3055 5.20813Z" fill="#4666FF"/>
<path d="M86.7407 2.20813C86.7407 1.65585 87.1884 1.20813 87.7407 1.20813C88.293 1.20813 88.7407 1.65585 88.7407 2.20813V8.20813C88.7407 8.76041 88.293 9.20813 87.7407 9.20813C87.1884 9.20813 86.7407 8.76041 86.7407 8.20813V2.20813Z" fill="#4666FF"/>
<path d="M92.1759 5.20813C92.1759 4.65585 92.6236 4.20813 93.1759 4.20813C93.7282 4.20813 94.1759 4.65585 94.1759 5.20813C94.1759 5.76041 93.7282 6.20813 93.1759 6.20813C92.6236 6.20813 92.1759 5.76041 92.1759 5.20813Z" fill="#4666FF"/>
<path d="M97.6111 2.20813C97.6111 1.65585 98.0588 1.20813 98.6111 1.20813C99.1634 1.20813 99.6111 1.65585 99.6111 2.20813V8.20813C99.6111 8.76041 99.1634 9.20813 98.6111 9.20813C98.0588 9.20813 97.6111 8.76041 97.6111 8.20813V2.20813Z" fill="#4666FF"/>
<path d="M103.046 1.20813C103.046 0.655845 103.494 0.20813 104.046 0.20813C104.599 0.20813 105.046 0.655845 105.046 1.20813V9.20813C105.046 9.76041 104.599 10.2081 104.046 10.2081C103.494 10.2081 103.046 9.76041 103.046 9.20813V1.20813Z" fill="#4666FF"/>
<path fill-rule="evenodd" clip-rule="evenodd" d="M182.151 3.3009H132.426V2.3009H182.151V3.3009Z" fill="#4666FF"/>
<path fill-rule="evenodd" clip-rule="evenodd" d="M182.151 6.3009H132.426V5.3009H182.151V6.3009Z" fill="#4666FF"/>
<path fill-rule="evenodd" clip-rule="evenodd" d="M182.151 9.3009H132.426V8.3009H182.151V9.3009Z" fill="#4666FF"/>
</g>
<defs>
<clipPath id="clip0_4_362">
<rect width="282" height="50" fill="white"/>
</clipPath>
</defs>
</svg>
